# xmcd CD database file
#
# Track frame offsets:
#	150
#	26542
#	45977
#	73980
#	98287
#	123790
#	143945
#	172820
#	190132
#	214220
#
# Disc length: 3149 seconds
#
# Revision: 1
# Processed by: cddbd v1.4PL0 Copyright (c) Steve Scherf et al.
# Submitted via: CDex 1.50Beta7
#
DISCID=800c4b0a
DTITLE=Osaka Masahiko - WALKIN' DOWN LEXINGTON
DYEAR=1900
DGENRE=Jazz
TTITLE0=CHATT TROIS COULEURS
TTITLE1=WALKIN' DOWN LEXINGTON
TTITLE2=THE RIVER FLOWS INTO THE NIGHT
TTITLE3=(They Long To Be)CLODE TO YOU
TTITLE4=AN ENGLISHMAN IN NEW YOUK
TTITLE5=CHICK-A-DEE
TTITLE6=ONCE UPON A SUMMERTIME
TTITLE7=L-O-V-E
TTITLE8=CIRCADIAN RHYTHM
TTITLE9=UNCHAINED MELODY
EXTD=
EXTT0=
EXTT1=
EXTT2=
EXTT3=
EXTT4=
EXTT5=
EXTT6=
EXTT7=
EXTT8=
EXTT9=
PLAYORDER=
